<?xml version="1.0" encoding="UTF-8"?>
<!DOCTYPE svg PUBLIC "-//W3C//DTD SVG 1.1//EN" "http://www.w3.org/Graphics/SVG/1.1/DTD/svg11.dtd">
<svg xmlns="http://www.w3.org/2000/svg" version="1.1" width="645px" height="387px" style="shape-rendering:geometricPrecision; text-rendering:geometricPrecision; image-rendering:optimizeQuality; fill-rule:evenodd; clip-rule:evenodd" xmlns:xlink="http://www.w3.org/1999/xlink">
<g><path style="opacity:0.92" fill="#fefffe" d="M 116.5,7.5 C 146.835,7.33335 177.168,7.50002 207.5,8C 209.421,8.36029 211.088,9.19362 212.5,10.5C 220.314,18.4705 227.147,27.1372 233,36.5C 233.22,45.7915 228.72,51.4582 219.5,53.5C 216.728,52.9743 214.062,52.1409 211.5,51C 206.42,46.5906 202.086,41.5906 198.5,36C 196.444,35.6892 194.444,35.1892 192.5,34.5C 169.538,34.2843 146.538,34.6177 123.5,35.5C 109.634,34.1323 104.801,26.7989 109,13.5C 111.114,10.8792 113.614,8.87922 116.5,7.5 Z"/></g>
<g><path style="opacity:0.946" fill="#fefffe" d="M 218.5,60.5 C 287.167,60.3333 355.834,60.5 424.5,61C 434.033,64.9134 436.867,71.7467 433,81.5C 430.635,84.8691 427.468,87.0357 423.5,88C 404.167,88.3333 384.833,88.6667 365.5,89C 380.167,92 394.833,95 409.5,98C 420.035,101.236 423.535,108.069 420,118.5C 418.167,120.333 416.333,122.167 414.5,124C 393.564,125.3 372.564,125.966 351.5,126C 368.267,130.358 384.933,135.025 401.5,140C 409.09,146.969 409.424,154.302 402.5,162C 399.754,163.75 396.754,164.75 393.5,165C 349.502,164.454 305.502,164.454 261.5,165C 249.61,162.017 246.11,154.85 251,143.5C 253.1,140.533 255.934,138.7 259.5,138C 268.167,137.667 276.833,137.333 285.5,137C 269.128,132.824 252.795,128.49 236.5,124C 227.458,115.947 227.458,107.947 236.5,100C 243.931,98.8525 251.431,98.0192 259,97.5C 260.752,98.2863 262.586,98.1196 264.5,97C 247.665,93.9669 230.998,90.3002 214.5,86C 207.319,80.1263 206.153,73.293 211,65.5C 213.17,63.1769 215.67,61.5103 218.5,60.5 Z"/></g>
<g><path style="opacity:0.914" fill="#fefffe" d="M 287.5,170.5 C 305.328,169.498 314.162,177.832 314,195.5C 308.792,211.187 298.292,216.354 282.5,211C 270.928,202.724 268.428,192.224 275,179.5C 278.299,175.118 282.466,172.118 287.5,170.5 Z"/></g>
<g><path style="opacity:0.915" fill="#fefffe" d="M 359.5,170.5 C 379.731,170.623 387.897,180.623 384,200.5C 376.493,213.338 365.993,216.504 352.5,210C 339.628,198.356 339.295,186.356 351.5,174C 354.309,172.907 356.976,171.74 359.5,170.5 Z"/></g>
<g><path style="opacity:0.863" fill="#fefffe" d="M 427.5,222.5 C 434.097,223.143 440.43,224.81 446.5,227.5C 448.936,226.9 450.602,225.4 451.5,223C 455.167,222.333 458.833,222.333 462.5,223C 462.921,231.154 459.587,237.487 452.5,242C 449.167,242.667 445.833,242.667 442.5,242C 438.106,239.531 433.439,238.531 428.5,239C 427.833,240 427.167,241 426.5,242C 423.242,242.212 420.076,242.712 417,243.5C 414.173,241.306 413.84,238.639 416,235.5C 417.681,229 421.514,224.666 427.5,222.5 Z"/></g>
<g><path style="opacity:0.92" fill="#fefffe" d="M 341.5,245.5 C 360.977,242.809 376.311,249.309 387.5,265C 380.81,269.012 373.81,272.512 366.5,275.5C 355.923,264.035 345.09,263.702 334,274.5C 329.333,283.833 329.333,293.167 334,302.5C 341.202,310.208 349.702,312.041 359.5,308C 361.874,305.961 363.874,303.628 365.5,301C 359.843,300.501 354.176,300.334 348.5,300.5C 348.411,294.456 348.411,288.622 348.5,283C 362.829,282.5 377.163,282.333 391.5,282.5C 391.835,317 374.835,333.167 340.5,331C 318.449,325.278 306.782,310.945 305.5,288C 307.007,264.678 319.007,250.511 341.5,245.5 Z"/></g>
<g><path style="opacity:0.929" fill="#fefffe" d="M 521.5,245.5 C 551.916,243.755 569.249,257.922 573.5,288C 569.641,319.181 551.975,333.514 520.5,331C 494.895,323.369 483.728,306.202 487,279.5C 491.769,261.231 503.269,249.897 521.5,245.5 Z M 526.5,266.5 C 540.598,266.765 547.932,273.932 548.5,288C 548.396,301.04 541.896,308.54 529,310.5C 516.984,308.155 510.817,300.821 510.5,288.5C 510.164,276.861 515.497,269.527 526.5,266.5 Z"/></g>
<g><path style="opacity:0.923" fill="#fefffe" d="M 105.5,246.5 C 112.508,246.334 119.508,246.5 126.5,247C 127,247.5 127.5,248 128,248.5C 139.13,275.753 149.963,303.086 160.5,330.5C 152.493,330.666 144.493,330.5 136.5,330C 134.304,325.08 132.304,320.08 130.5,315C 120.816,314.168 111.149,314.335 101.5,315.5C 99.5933,320.391 97.5933,325.224 95.5,330C 87.3345,330.964 79.3345,330.63 71.5,329C 82.7194,301.402 94.0528,273.902 105.5,246.5 Z M 115.5,275.5 C 118.405,281.539 120.738,287.873 122.5,294.5C 118.116,294.826 113.783,294.492 109.5,293.5C 112.105,287.686 114.105,281.686 115.5,275.5 Z"/></g>
<g><path style="opacity:0.915" fill="#fefffe" d="M 166.5,246.5 C 176.506,246.334 186.506,246.5 196.5,247C 197,247.5 197.5,248 198,248.5C 202.511,265.544 207.178,282.544 212,299.5C 217.308,282.268 222.308,264.935 227,247.5C 237.423,246.348 247.923,246.181 258.5,247C 259.162,260.76 259.496,274.594 259.5,288.5C 259.496,302.406 259.162,316.24 258.5,330C 254.833,330.167 251.167,330.333 247.5,330.5C 243.405,330.458 239.571,329.792 236,328.5C 235.446,313.212 235.446,297.878 236,282.5C 232.414,295.676 228.247,308.676 223.5,321.5C 215.942,322.813 208.442,322.813 201,321.5C 196.403,309.375 192.403,297.041 189,284.5C 188.667,299.5 188.333,314.5 188,329.5C 180.587,330.481 173.087,330.814 165.5,330.5C 165.176,302.426 165.509,274.426 166.5,246.5 Z"/></g>
<g><path style="opacity:0.915" fill="#fefffe" d="M 273.5,246.5 C 280.755,246.187 287.921,246.52 295,247.5C 295.5,275.165 295.667,302.831 295.5,330.5C 287.833,330.5 280.167,330.5 272.5,330.5C 272.176,302.426 272.509,274.426 273.5,246.5 Z"/></g>
<g><path style="opacity:0.923" fill="#fefffe" d="M 428.5,246.5 C 435.508,246.334 442.508,246.5 449.5,247C 461.215,274.138 472.548,301.471 483.5,329C 475.665,330.63 467.665,330.964 459.5,330C 457.407,325.224 455.407,320.391 453.5,315.5C 443.851,314.335 434.184,314.168 424.5,315C 422.5,320 420.5,325 418.5,330C 410.507,330.5 402.507,330.666 394.5,330.5C 404.863,302.073 416.196,274.073 428.5,246.5 Z M 438.5,275.5 C 440.806,281.401 443.139,287.401 445.5,293.5C 441.217,294.492 436.884,294.826 432.5,294.5C 434.22,288.065 436.22,281.731 438.5,275.5 Z"/></g>
<g><path style="opacity:0.69" fill="#fefffe" d="M 71.5,345.5 C 89.334,344.165 96.1674,352.165 92,369.5C 90.2352,372.473 87.7352,374.64 84.5,376C 80.1667,376.667 75.8333,376.667 71.5,376C 71.0426,375.586 70.7093,375.086 70.5,374.5C 71.4743,364.887 71.8076,355.22 71.5,345.5 Z M 76.5,350.5 C 83.609,350.443 87.2757,353.943 87.5,361C 87.862,368.801 84.1953,372.301 76.5,371.5C 76.5,364.5 76.5,357.5 76.5,350.5 Z"/></g>
<g><path style="opacity:0.639" fill="#fefffe" d="M 96.5,345.5 C 98.4672,345.261 100.301,345.594 102,346.5C 102.667,356.167 102.667,365.833 102,375.5C 100.301,376.406 98.4672,376.739 96.5,376.5C 96.5,366.167 96.5,355.833 96.5,345.5 Z"/></g>
<g><path style="opacity:0.65" fill="#fefffe" d="M 111.5,345.5 C 114.85,345.335 118.183,345.502 121.5,346C 126.38,347.425 126.713,349.591 122.5,352.5C 118.593,349.72 114.926,349.887 111.5,353C 114.204,356.865 117.87,359.531 122.5,361C 126.613,364.509 127.446,368.676 125,373.5C 118.202,378.795 111.368,378.795 104.5,373.5C 105.5,372.167 106.5,370.833 107.5,369.5C 111.578,372.293 115.744,372.627 120,370.5C 120.667,368.833 120.667,367.167 120,365.5C 116.579,363.539 113.079,361.706 109.5,360C 105.002,354.32 105.669,349.487 111.5,345.5 Z"/></g>
<g><path style="opacity:0.69" fill="#fefffe" d="M 127.5,345.5 C 134.5,345.5 141.5,345.5 148.5,345.5C 148.5,347.167 148.5,348.833 148.5,350.5C 145.833,350.5 143.167,350.5 140.5,350.5C 140.859,358.843 141.025,367.176 141,375.5C 139.301,376.406 137.467,376.739 135.5,376.5C 135.5,367.833 135.5,359.167 135.5,350.5C 132.833,350.5 130.167,350.5 127.5,350.5C 127.5,348.833 127.5,347.167 127.5,345.5 Z"/></g>
<g><path style="opacity:0.687" fill="#fefffe" d="M 151.5,345.5 C 157.434,344.889 163.1,345.722 168.5,348C 171.318,351.338 172.151,355.171 171,359.5C 169.773,361.726 167.939,363.226 165.5,364C 167.959,367.75 170.292,371.583 172.5,375.5C 170.579,376.641 168.579,376.808 166.5,376C 164.23,372.73 162.396,369.23 161,365.5C 159.644,364.62 158.144,364.286 156.5,364.5C 156.5,368.5 156.5,372.5 156.5,376.5C 154.833,376.5 153.167,376.5 151.5,376.5C 151.5,366.167 151.5,355.833 151.5,345.5 Z M 156.5,350.5 C 161.137,349.442 164.47,350.942 166.5,355C 164.855,359.66 161.521,361.494 156.5,360.5C 156.5,357.167 156.5,353.833 156.5,350.5 Z"/></g>
<g><path style="opacity:0.645" fill="#fefffe" d="M 175.5,345.5 C 177.766,345.141 179.599,345.808 181,347.5C 181.667,356.833 181.667,366.167 181,375.5C 179.301,376.406 177.467,376.739 175.5,376.5C 175.5,366.167 175.5,355.833 175.5,345.5 Z"/></g>
<g><path style="opacity:0.703" fill="#fefffe" d="M 185.5,345.5 C 190.58,345.25 195.58,345.75 200.5,347C 205.489,351.132 205.822,355.632 201.5,360.5C 205.708,364.095 206.541,368.428 204,373.5C 203.097,374.701 201.931,375.535 200.5,376C 195.511,376.499 190.511,376.666 185.5,376.5C 185.5,366.167 185.5,355.833 185.5,345.5 Z M 190.5,350.5 C 197.284,349.185 199.617,351.685 197.5,358C 195.19,358.497 192.857,358.663 190.5,358.5C 190.5,355.833 190.5,353.167 190.5,350.5 Z M 190.5,363.5 C 193.187,363.336 195.854,363.503 198.5,364C 200.442,365.972 200.776,368.139 199.5,370.5C 191.647,374.655 188.647,372.322 190.5,363.5 Z"/></g>
<g><path style="opacity:0.709" fill="#fefffe" d="M 208.5,345.5 C 210.167,345.5 211.833,345.5 213.5,345.5C 213.334,352.508 213.5,359.508 214,366.5C 215.803,371.985 219.303,373.485 224.5,371C 225.893,369.829 226.727,368.329 227,366.5C 227.5,359.508 227.666,352.508 227.5,345.5C 229.167,345.5 230.833,345.5 232.5,345.5C 232.666,353.507 232.5,361.507 232,369.5C 227.402,377.584 220.902,379.417 212.5,375C 211.333,373.167 210.167,371.333 209,369.5C 208.5,361.507 208.334,353.507 208.5,345.5 Z"/></g>
<g><path style="opacity:0.763" fill="#fefffe" d="M 236.5,345.5 C 238.167,345.5 239.833,345.5 241.5,345.5C 241.5,355.833 241.5,366.167 241.5,376.5C 239.833,376.5 238.167,376.5 236.5,376.5C 236.5,366.167 236.5,355.833 236.5,345.5 Z"/></g>
<g><path style="opacity:0.671" fill="#fefffe" d="M 246.5,345.5 C 266.549,344.925 272.716,353.925 265,372.5C 263.745,373.211 262.579,374.044 261.5,375C 256.292,376.397 250.959,376.897 245.5,376.5C 245.192,366.085 245.525,355.751 246.5,345.5 Z M 251.5,350.5 C 262.211,352.247 265.378,358.247 261,368.5C 258.454,371.186 255.287,372.186 251.5,371.5C 251.5,364.5 251.5,357.5 251.5,350.5 Z"/></g>
<g><path style="opacity:0.681" fill="#fefffe" d="M 280.5,345.5 C 297.309,345.153 303.476,353.153 299,369.5C 292.973,377.511 285.473,379.345 276.5,375C 268.273,367.05 267.606,358.55 274.5,349.5C 276.565,348.143 278.565,346.81 280.5,345.5 Z M 282.5,350.5 C 292.876,350.876 296.709,356.209 294,366.5C 289.984,372.461 284.818,373.628 278.5,370C 275.709,365.899 274.875,361.399 276,356.5C 277.494,353.686 279.66,351.686 282.5,350.5 Z"/></g>
<g><path style="opacity:0.675" fill="#fefffe" d="M 303.5,345.5 C 307.846,345.334 312.179,345.501 316.5,346C 322.487,348.14 324.654,352.307 323,358.5C 321.833,361 320,362.833 317.5,364C 319.125,367.42 321.125,370.587 323.5,373.5C 327.488,364.706 330.988,355.706 334,346.5C 335.814,345.24 337.647,345.24 339.5,346.5C 343.187,356.532 346.854,366.532 350.5,376.5C 345.665,377.339 342.999,375.339 342.5,370.5C 338.878,369.341 335.211,369.175 331.5,370C 330.692,372.088 329.692,374.088 328.5,376C 325.167,376.667 321.833,376.667 318.5,376C 316.121,372.744 314.121,369.244 312.5,365.5C 311.311,364.571 309.978,364.238 308.5,364.5C 308.5,368.5 308.5,372.5 308.5,376.5C 306.5,376.5 304.5,376.5 302.5,376.5C 302.192,366.085 302.525,355.751 303.5,345.5 Z M 308.5,350.5 C 313.022,349.62 316.355,351.12 318.5,355C 316.855,359.66 313.521,361.494 308.5,360.5C 308.5,357.167 308.5,353.833 308.5,350.5 Z M 336.5,353.5 C 338.002,356.654 339.336,359.987 340.5,363.5C 338.257,364.474 335.924,364.808 333.5,364.5C 334.653,360.889 335.653,357.223 336.5,353.5 Z"/></g>
<g><path style="opacity:0.719" fill="#fefffe" d="M 362.5,345.5 C 380.401,344.227 387.235,352.227 383,369.5C 381.437,372.728 378.937,374.895 375.5,376C 371.179,376.499 366.846,376.666 362.5,376.5C 362.5,366.167 362.5,355.833 362.5,345.5 Z M 367.5,350.5 C 378.055,351.589 381.555,357.256 378,367.5C 375.409,371.048 371.909,372.382 367.5,371.5C 367.5,364.5 367.5,357.5 367.5,350.5 Z"/></g>
<g><path style="opacity:0.659" fill="#fefffe" d="M 387.5,345.5 C 393.833,345.5 400.167,345.5 406.5,345.5C 406.5,347.167 406.5,348.833 406.5,350.5C 401.833,350.5 397.167,350.5 392.5,350.5C 392.223,353.448 392.556,356.281 393.5,359C 396.518,359.499 399.518,359.332 402.5,358.5C 405.711,358.78 406.711,360.28 405.5,363C 401.179,363.499 396.846,363.666 392.5,363.5C 392.5,366.167 392.5,368.833 392.5,371.5C 396.846,371.334 401.179,371.501 405.5,372C 406.38,373.356 406.714,374.856 406.5,376.5C 400.167,376.5 393.833,376.5 387.5,376.5C 387.5,366.167 387.5,355.833 387.5,345.5 Z"/></g>
<g><path style="opacity:0.66" fill="#fefffe" d="M 421.5,345.5 C 425.182,345.335 428.848,345.501 432.5,346C 440.842,348.537 442.509,353.371 437.5,360.5C 441.708,364.095 442.541,368.428 440,373.5C 439.097,374.701 437.931,375.535 436.5,376C 431.177,376.499 425.844,376.666 420.5,376.5C 420.192,366.085 420.525,355.751 421.5,345.5 Z M 426.5,350.5 C 428.527,350.338 430.527,350.505 432.5,351C 435.167,353.333 435.167,355.667 432.5,358C 430.527,358.495 428.527,358.662 426.5,358.5C 426.5,355.833 426.5,353.167 426.5,350.5 Z M 426.5,363.5 C 429.187,363.336 431.854,363.503 434.5,364C 435.833,366.333 435.833,368.667 434.5,371C 431.937,372.079 429.271,372.579 426.5,372.5C 426.5,369.5 426.5,366.5 426.5,363.5 Z"/></g>
<g><path style="opacity:0.683" fill="#fefffe" d="M 444.5,345.5 C 450.509,345.334 456.509,345.501 462.5,346C 463.38,347.356 463.714,348.856 463.5,350.5C 458.833,350.5 454.167,350.5 449.5,350.5C 449.335,353.518 449.502,356.518 450,359.5C 453.953,359.303 458.119,358.97 462.5,358.5C 462.5,360.167 462.5,361.833 462.5,363.5C 458.167,363.5 453.833,363.5 449.5,363.5C 449.5,366.167 449.5,368.833 449.5,371.5C 453.846,371.334 458.179,371.501 462.5,372C 463.38,373.356 463.714,374.856 463.5,376.5C 457.167,376.5 450.833,376.5 444.5,376.5C 444.5,366.167 444.5,355.833 444.5,345.5 Z"/></g>
<g><path style="opacity:0.681" fill="#fefffe" d="M 467.5,345.5 C 471.514,345.334 475.514,345.501 479.5,346C 487.145,349.009 488.478,353.843 483.5,360.5C 488.02,363.556 489.186,367.556 487,372.5C 485.786,374.049 484.286,375.215 482.5,376C 477.511,376.499 472.511,376.666 467.5,376.5C 467.5,366.167 467.5,355.833 467.5,345.5 Z M 472.5,350.5 C 479.284,349.185 481.617,351.685 479.5,358C 477.19,358.497 474.857,358.663 472.5,358.5C 472.5,355.833 472.5,353.167 472.5,350.5 Z M 472.5,363.5 C 475.187,363.336 477.854,363.503 480.5,364C 483.332,366.775 483.165,369.275 480,371.5C 477.566,372.322 475.066,372.656 472.5,372.5C 472.5,369.5 472.5,366.5 472.5,363.5 Z"/></g>
<g><path style="opacity:0.639" fill="#fefffe" d="M 491.5,345.5 C 493.167,345.5 494.833,345.5 496.5,345.5C 496.5,355.833 496.5,366.167 496.5,376.5C 494.533,376.739 492.699,376.406 491,375.5C 490.217,365.453 490.383,355.453 491.5,345.5 Z"/></g>
<g><path style="opacity:0.673" fill="#fefffe" d="M 500.5,345.5 C 519.613,343.779 526.447,352.112 521,370.5C 519.5,372 518,373.5 516.5,375C 511.292,376.397 505.959,376.897 500.5,376.5C 500.5,366.167 500.5,355.833 500.5,345.5 Z M 506.5,350.5 C 517.375,352.93 520.209,359.263 515,369.5C 512.083,371.393 508.916,371.893 505.5,371C 506.479,364.256 506.812,357.422 506.5,350.5 Z"/></g>
<g><path style="opacity:0.672" fill="#fefffe" d="M 534.5,345.5 C 536.288,345.215 537.955,345.548 539.5,346.5C 542.182,355.526 545.682,364.193 550,372.5C 551,371.5 552,370.5 553,369.5C 557.992,373.739 562.492,373.406 566.5,368.5C 565.96,367.252 565.293,366.085 564.5,365C 560.423,363.213 556.59,361.046 553,358.5C 549.773,349.968 552.773,345.635 562,345.5C 565.502,345.171 568.336,346.338 570.5,349C 570.046,350.622 569.046,351.788 567.5,352.5C 563.631,349.486 560.298,349.819 557.5,353.5C 557.608,354.442 557.941,355.275 558.5,356C 562.167,358.167 565.833,360.333 569.5,362.5C 573.458,371.578 570.458,376.578 560.5,377.5C 557.034,377.4 553.868,376.4 551,374.5C 545.69,377.648 542.857,375.982 542.5,369.5C 538.5,369.5 534.5,369.5 530.5,369.5C 530.895,375.783 528.228,377.783 522.5,375.5C 526.516,365.474 530.516,355.474 534.5,345.5 Z M 536.5,354.5 C 537.91,357.542 539.243,360.709 540.5,364C 537.833,364.667 535.167,364.667 532.5,364C 534.129,360.943 535.462,357.777 536.5,354.5 Z"/></g>
</svg>
