<?xml version="1.0" standalone="no"?>
<!DOCTYPE svg PUBLIC "-//W3C//DTD SVG 20010904//EN"
 "http://www.w3.org/TR/2001/REC-SVG-20010904/DTD/svg10.dtd">
<svg version="1.0" xmlns="http://www.w3.org/2000/svg"
 width="645.000000pt" height="387.000000pt" viewBox="0 0 645.000000 387.000000"
 preserveAspectRatio="xMidYMid meet">

<g transform="translate(0.000000,387.000000) scale(0.100000,-0.100000)"
fill="#000000" stroke="none">
<path d="M1164 3766 c-67 -30 -94 -108 -59 -176 32 -61 21 -60 466 -60 l407 0
63 -72 c97 -111 126 -126 196 -102 55 19 83 58 83 116 0 46 -4 53 -100 167
-82 98 -108 122 -138 131 -59 16 -879 13 -918 -4z"/>
<path d="M2390 2838 c-13 -13 -18 -15 -11 -5 21 27 5 20 -24 -10 -34 -38 -42
-85 -20 -132 18 -41 36 -54 100 -70 29 -8 41 -7 47 2 5 9 106 12 427 12 l420
-1 -77 24 c-42 13 -91 24 -108 25 -18 1 -30 5 -28 8 2 4 -10 9 -27 13 -44 9
-56 7 -39 -4 10 -7 11 -10 2 -10 -7 0 -15 7 -18 15 -4 8 -14 15 -23 15 -9 0
-52 12 -96 26 -44 14 -88 23 -98 20 -11 -2 -16 -2 -13 2 7 7 -95 41 -139 46
-16 2 -43 9 -58 15 -16 6 -40 8 -55 5 -18 -4 -23 -3 -14 4 10 7 5 11 -18 16
-63 12 -105 7 -130 -16z m117 6 c-3 -3 -12 -4 -19 -1 -8 3 -5 6 6 6 11 1 17
-2 13 -5z m-162 -83 c3 -5 2 -12 -3 -15 -5 -3 -9 1 -9 9 0 17 3 19 12 6z m15
-81 c6 -11 8 -20 6 -20 -3 0 -10 9 -16 20 -6 11 -8 20 -6 20 3 0 10 -9 16 -20z
m32 -15 c3 -13 1 -22 -3 -19 -9 5 -13 44 -5 44 2 0 6 -11 8 -25z m45 -21 c-3
-3 -12 -4 -19 -1 -8 3 -5 6 6 6 11 1 17 -2 13 -5z"/>
<path d="M3518 2623 c6 -2 18 -2 25 0 6 3 1 5 -13 5 -14 0 -19 -2 -12 -5z"/>
<path d="M4043 2623 c9 -2 25 -2 35 0 9 3 1 5 -18 5 -19 0 -27 -2 -17 -5z"/>
<path d="M2753 2470 c-175 -5 -182 -6 -207 -29 -15 -14 -31 -41 -37 -61 -10
-31 -8 -44 9 -84 14 -30 30 -50 47 -56 17 -6 285 -10 723 -10 766 0 724 -3
757 60 34 66 9 140 -58 171 -40 18 -70 18 -547 17 -278 -1 -587 -5 -687 -8z"/>
<path d="M2870 2138 c-41 -11 -103 -68 -125 -114 -34 -72 -9 -172 58 -231 72
-63 174 -67 250 -10 55 42 82 96 81 167 -2 138 -127 227 -264 188z"/>
<path d="M3593 2140 c-101 -24 -170 -140 -143 -239 25 -96 104 -156 200 -155
231 2 277 332 55 393 -45 12 -65 12 -112 1z"/>
<path d="M4225 1585 c-31 -33 -70 -119 -60 -135 3 -4 25 -6 51 -5 33 2 50 9
60 24 19 27 55 27 113 0 112 -50 190 -14 226 106 l14 45 -54 0 c-45 0 -55 -3
-60 -20 -8 -26 -53 -26 -123 0 -29 11 -71 20 -93 20 -34 0 -47 -6 -74 -35z"/>
<path d="M3407 1389 c-127 -26 -236 -107 -287 -213 -84 -177 -48 -381 90 -509
76 -71 145 -98 262 -105 244 -13 418 143 435 391 l6 77 -207 0 -206 0 0 -80 0
-80 86 0 c84 0 85 0 79 -22 -36 -117 -238 -132 -320 -24 -37 49 -58 143 -45
202 17 76 39 111 87 143 83 55 177 49 244 -16 l36 -34 97 45 c53 24 96 47 96
51 0 17 -69 89 -109 114 -92 56 -239 82 -344 60z"/>
<path d="M5202 1385 c-126 -28 -248 -128 -293 -243 -34 -83 -34 -242 -1 -328
34 -90 105 -164 200 -211 75 -37 78 -38 192 -38 109 0 119 2 182 32 175 83
267 267 231 460 -18 93 -41 141 -100 205 -59 63 -135 105 -220 123 -82 18
-109 18 -191 0z m188 -200 c70 -37 110 -113 110 -207 -1 -170 -146 -275 -286
-207 -76 36 -114 110 -114 219 1 131 102 230 220 214 25 -3 56 -12 70 -19z"/>
<path d="M1050 1356 c-5 -14 -26 -65 -46 -113 -86 -208 -264 -655 -264 -663 0
-6 45 -10 108 -10 l107 0 30 78 30 77 151 3 152 3 28 -81 27 -80 113 0 114 0
-9 23 c-38 92 -128 316 -176 432 -32 77 -76 187 -99 245 l-42 105 -107 3
c-106 3 -107 2 -117 -22z m163 -342 c20 -56 33 -105 30 -108 -12 -12 -153 -7
-153 6 0 25 73 219 80 211 4 -4 23 -54 43 -109z"/>
<path d="M1670 975 l0 -405 106 0 106 0 -3 289 c-2 159 -3 289 -2 287 1 -1 11
-42 22 -91 10 -50 43 -161 71 -248 l52 -158 106 3 105 3 54 160 c30 88 62 198
72 245 l19 85 1 -287 1 -288 105 0 105 0 0 405 0 405 -154 0 -154 0 -32 -117
c-17 -65 -49 -178 -71 -252 -21 -74 -39 -146 -39 -162 0 -15 -4 -31 -10 -34
-6 -3 -10 4 -10 16 0 20 -46 192 -120 449 l-28 95 -151 3 -151 3 0 -406z"/>
<path d="M2740 975 l0 -405 105 0 105 0 0 405 0 405 -105 0 -105 0 0 -405z"/>
<path d="M4281 1363 c-5 -10 -36 -85 -69 -168 -33 -82 -86 -213 -117 -290 -31
-77 -73 -178 -92 -225 -19 -47 -37 -91 -40 -97 -4 -10 22 -13 110 -13 115 0
115 0 121 25 4 14 16 50 27 81 l21 55 151 -3 151 -3 31 -77 30 -78 108 0 c64
0 107 4 107 10 0 9 -146 374 -260 650 -22 52 -44 107 -49 123 l-11 27 -104 0
c-90 0 -107 -3 -115 -17z m153 -337 c20 -54 36 -105 36 -112 0 -11 -18 -14
-73 -14 -41 0 -76 3 -80 6 -3 3 9 47 28 98 43 117 47 127 51 124 1 -2 19 -48
38 -102z"/>
<path d="M1130 393 c-57 -21 -67 -77 -20 -116 16 -14 40 -29 52 -32 37 -12 58
-36 58 -67 0 -41 -36 -56 -97 -40 -50 14 -81 2 -46 -16 65 -35 153 -21 174 29
19 48 3 77 -65 113 -65 35 -82 61 -58 89 17 19 54 22 84 6 16 -9 23 -8 29 2
16 25 -66 48 -111 32z"/>
<path d="M2790 381 c-53 -28 -74 -63 -74 -124 0 -68 20 -106 69 -134 49 -28
89 -29 135 -4 107 56 107 210 0 263 -45 23 -87 23 -130 -1z m119 -26 c52 -26
70 -115 35 -174 -36 -61 -121 -66 -168 -10 -20 24 -26 41 -26 81 0 44 4 54 34
84 38 38 77 44 125 19z"/>
<path d="M5580 393 c-79 -29 -62 -108 32 -148 105 -43 67 -139 -42 -106 -48
14 -50 14 -50 -4 0 -8 17 -19 42 -25 79 -22 148 10 148 68 0 39 -16 56 -80 90
-57 31 -73 59 -50 88 15 17 53 18 82 3 16 -8 22 -8 29 2 16 27 -64 49 -111 32z"/>
<path d="M730 250 l0 -140 59 0 c49 0 65 4 90 25 37 32 55 84 48 143 -4 37
-12 53 -41 79 -32 30 -42 33 -96 33 l-60 0 0 -140z m92 109 c50 -13 72 -54 65
-122 -5 -59 -36 -94 -87 -99 l-35 -3 -3 118 c-3 128 -5 125 60 106z"/>
<path d="M980 250 c0 -133 1 -140 20 -140 19 0 20 7 20 140 0 133 -1 140 -20
140 -19 0 -20 -7 -20 -140z"/>
<path d="M1290 381 c0 -6 17 -11 38 -13 l37 -3 3 -127 c2 -104 5 -128 17 -128
12 0 15 24 17 128 l3 127 38 3 c20 2 37 7 37 13 0 5 -42 9 -95 9 -53 0 -95 -4
-95 -9z"/>
<path d="M1530 250 c0 -118 2 -140 15 -140 12 0 15 13 15 60 0 59 0 60 28 60
25 0 32 -8 57 -60 19 -41 34 -60 47 -60 24 0 23 5 -12 62 -34 54 -37 68 -16
68 22 0 46 40 46 75 0 53 -34 75 -113 75 l-67 0 0 -140z m131 99 c15 -15 19
-28 14 -47 -8 -37 -32 -52 -77 -52 l-38 0 0 60 0 60 40 0 c27 0 47 -7 61 -21z"/>
<path d="M1770 250 c0 -133 1 -140 20 -140 19 0 20 7 20 140 0 133 -1 140 -20
140 -19 0 -20 -7 -20 -140z"/>
<path d="M1870 250 l0 -140 70 0 c58 0 72 3 90 22 28 31 27 81 -4 106 -21 16
-23 21 -11 33 27 26 29 75 6 98 -17 17 -33 21 -86 21 l-65 0 0 -140z m111 110
c28 -16 25 -65 -5 -86 -14 -8 -35 -14 -48 -12 -20 3 -23 9 -26 56 l-3 52 31 0
c17 0 40 -5 51 -10z m23 -142 c21 -30 20 -44 -4 -68 -13 -13 -33 -20 -60 -20
l-40 0 0 55 0 55 44 0 c35 0 48 -5 60 -22z"/>
<path d="M2100 280 c0 -107 1 -110 29 -142 26 -29 35 -33 81 -33 46 0 55 4 81
33 28 32 29 35 29 142 0 91 -3 110 -15 110 -12 0 -15 -17 -15 -90 0 -140 -33
-190 -109 -164 -40 14 -51 48 -51 157 0 79 -3 97 -15 97 -12 0 -15 -19 -15
-110z"/>
<path d="M2380 250 c0 -135 1 -140 21 -140 20 0 20 4 17 140 -2 126 -4 140
-20 140 -16 0 -18 -13 -18 -140z"/>
<path d="M2470 250 l0 -140 66 0 c61 0 68 2 99 33 60 60 57 168 -6 222 -26 21
-41 25 -95 25 l-64 0 0 -140z m103 109 c30 -8 42 -18 53 -44 18 -44 18 -86 0
-130 -12 -27 -23 -36 -55 -45 -23 -6 -46 -8 -51 -5 -6 4 -10 57 -10 121 0 125
-2 121 63 103z"/>
<path d="M3040 250 c0 -133 1 -140 20 -140 18 0 20 7 20 60 0 57 1 60 24 60
20 0 31 -12 58 -60 21 -40 39 -60 51 -60 17 0 15 6 -12 57 -35 64 -37 73 -17
73 21 0 46 39 46 71 0 14 -9 38 -21 53 -19 24 -26 26 -95 26 l-74 0 0 -140z
m132 108 c9 -7 17 -20 18 -28 7 -54 -16 -80 -71 -80 l-39 0 0 60 0 60 38 0
c21 0 45 -6 54 -12z"/>
<path d="M3342 363 c-21 -51 -92 -246 -92 -249 0 -2 8 -4 18 -4 11 0 23 13 31
35 12 35 13 35 72 35 58 0 60 -1 76 -35 10 -21 24 -35 34 -35 17 0 16 6 -8 68
-14 37 -37 100 -51 140 -21 60 -29 72 -48 72 -14 0 -25 -9 -32 -27z m57 -75
c29 -86 28 -88 -22 -88 -24 0 -46 3 -50 6 -4 5 11 58 38 132 8 21 13 14 34
-50z"/>
<path d="M3640 250 l0 -140 55 0 c98 0 145 45 145 140 0 95 -47 140 -145 140
l-55 0 0 -140z m106 105 c88 -36 79 -189 -12 -214 -61 -17 -64 -11 -64 108 0
59 3 111 7 114 10 11 31 8 69 -8z"/>
<path d="M3890 250 l0 -140 85 0 c101 0 115 18 18 22 l-68 3 -3 53 -3 52 65 0
c36 0 68 5 71 10 4 6 -20 10 -64 10 l-71 0 0 55 0 55 70 0 c40 0 70 4 70 10 0
6 -35 10 -85 10 l-85 0 0 -140z"/>
<path d="M4220 250 l0 -140 73 0 c64 0 76 3 95 23 31 33 29 80 -5 107 -17 13
-23 24 -17 28 15 9 34 47 34 66 0 8 -10 24 -22 36 -17 16 -35 20 -90 20 l-68
0 0 -140z m121 110 c27 -15 25 -64 -3 -84 -12 -9 -35 -16 -50 -16 -27 0 -28 2
-28 55 0 55 0 55 31 55 17 0 39 -5 50 -10z m17 -132 c7 -7 12 -27 12 -45 0
-38 -21 -53 -74 -53 l-36 0 0 55 0 55 43 0 c24 0 48 -5 55 -12z"/>
<path d="M4460 250 l0 -140 85 0 c101 0 115 18 18 22 l-68 3 -3 53 -3 52 65 0
c37 0 66 4 66 10 0 6 -28 10 -65 10 l-65 0 0 55 0 55 70 0 c40 0 70 4 70 10 0
6 -35 10 -85 10 l-85 0 0 -140z"/>
<path d="M4690 250 l0 -140 70 0 c57 0 74 4 90 20 29 29 27 83 -6 109 l-25 20
20 20 c27 27 27 65 1 91 -16 16 -33 20 -85 20 l-65 0 0 -140z m118 108 c14
-14 16 -57 3 -77 -5 -7 -26 -14 -47 -15 l-39 -1 -3 53 -3 52 38 0 c22 0 44 -5
51 -12z m17 -142 c11 -17 13 -30 6 -48 -11 -29 -29 -38 -77 -38 l-34 0 0 55 0
55 45 0 c36 0 48 -5 60 -24z"/>
<path d="M4920 250 c0 -133 1 -140 20 -140 19 0 20 7 20 140 0 133 -1 140 -20
140 -19 0 -20 -7 -20 -140z"/>
<path d="M5020 251 l0 -141 55 0 c107 0 150 47 143 157 -3 53 -9 68 -31 90
-23 23 -37 28 -97 31 l-70 4 0 -141z m130 90 c48 -35 51 -126 7 -176 -15 -17
-34 -25 -62 -27 l-40 -3 -3 104 c-1 58 0 111 3 119 7 19 60 9 95 -17z"/>
<path d="M5339 363 c-33 -86 -89 -241 -89 -247 0 -3 7 -6 16 -6 8 0 22 16 30
35 14 35 15 35 75 35 59 0 60 0 75 -35 10 -24 21 -35 35 -35 13 0 18 4 13 12
-4 6 -28 68 -54 137 -38 104 -51 127 -68 129 -16 3 -25 -4 -33 -25z m75 -154
c-7 -12 -81 -12 -88 0 -5 8 25 108 40 133 4 7 17 -17 31 -56 12 -38 20 -73 17
-77z"/>
</g>
</svg>
